<svg width="285" height="152" viewBox="0 0 285 152" fill="none" xmlns="http://www.w3.org/2000/svg">
<path d="M85.5348 23.8924C85.5348 37.0878 74.8378 47.7848 61.6424 47.7848C48.447 47.7848 37.75 37.0878 37.75 23.8924C37.75 10.697 48.447 0 61.6424 0C74.8378 0 85.5348 10.697 85.5348 23.8924Z" fill="#F5F4EC"/>
<path d="M47.7848 79.8006C47.7848 92.996 37.0878 103.693 23.8924 103.693C10.697 103.693 0 92.996 0 79.8006C0 66.6052 10.697 55.9082 23.8924 55.9082C37.0878 55.9082 47.7848 66.6052 47.7848 79.8006Z" fill="#F5F4EC"/>
<path d="M105.127 52.5633C105.127 65.7587 94.4296 76.4557 81.2342 76.4557C68.0388 76.4557 57.3418 65.7587 57.3418 52.5633C57.3418 39.3679 68.0388 28.6709 81.2342 28.6709C94.4296 28.6709 105.127 39.3679 105.127 52.5633Z" fill="#F5F4EC"/>
<path d="M122.329 79.8006C122.329 92.996 111.632 103.693 98.4367 103.693C85.2413 103.693 74.5443 92.996 74.5443 79.8006C74.5443 66.6052 85.2413 55.9082 98.4367 55.9082C111.632 55.9082 122.329 66.6052 122.329 79.8006Z" fill="#F5F4EC"/>
<path d="M65.943 50.6519C65.943 63.8473 55.246 74.5443 42.0506 74.5443C28.8552 74.5443 18.1582 63.8473 18.1582 50.6519C18.1582 37.4565 28.8552 26.7595 42.0506 26.7595C55.246 26.7595 65.943 37.4565 65.943 50.6519Z" fill="#F5F4EC"/>
<path d="M90.0744 87.4462C90.0744 100.642 74.8378 103.693 61.6424 103.693C48.447 103.693 37.75 100.642 37.75 87.4462C37.75 74.2508 48.447 55.9082 61.6424 55.9082C74.8378 55.9082 90.0744 74.2508 90.0744 87.4462Z" fill="#F5F4EC"/>
<path d="M62.9437 76.3867C62.9437 71.4611 61.9948 70.3665 61.7576 68.7247C61.5203 67.0828 61.9348 59.9204 61.2831 54.3128C59.9377 42.7356 59.1481 79.8528 59.6225 84.0487C47.5238 82.5893 44.4398 77.6637 44.4398 77.6637C44.4398 77.6637 47.5238 86.9675 59.6225 86.6027C59.6225 89.704 59.3853 151 59.3853 151H62.9437V92.6228V88.7918V78.9407C75.2797 76.3867 77.8892 68.7247 77.8892 68.7247C77.8892 68.7247 72.1957 76.3867 62.9437 76.3867Z" fill="#121212" stroke="#121212" stroke-width="0.477848"/>
<path d="M247.864 23.8924C247.864 37.0878 237.167 47.7848 223.972 47.7848C210.776 47.7848 200.079 37.0878 200.079 23.8924C200.079 10.697 210.776 0 223.972 0C237.167 0 247.864 10.697 247.864 23.8924Z" fill="#F5F4EC"/>
<path d="M210.114 79.8006C210.114 92.996 199.417 103.693 186.222 103.693C173.026 103.693 162.329 92.996 162.329 79.8006C162.329 66.6052 173.026 55.9082 186.222 55.9082C199.417 55.9082 210.114 66.6052 210.114 79.8006Z" fill="#F5F4EC"/>
<path d="M267.456 52.5633C267.456 65.7587 256.759 76.4557 243.563 76.4557C230.368 76.4557 219.671 65.7587 219.671 52.5633C219.671 39.3679 230.368 28.6709 243.563 28.6709C256.759 28.6709 267.456 39.3679 267.456 52.5633Z" fill="#F5F4EC"/>
<path d="M284.658 79.8006C284.658 92.996 273.961 103.693 260.766 103.693C247.57 103.693 236.873 92.996 236.873 79.8006C236.873 66.6052 247.57 55.9082 260.766 55.9082C273.961 55.9082 284.658 66.6052 284.658 79.8006Z" fill="#F5F4EC"/>
<path d="M228.272 50.6519C228.272 63.8473 217.575 74.5443 204.38 74.5443C191.184 74.5443 180.487 63.8473 180.487 50.6519C180.487 37.4565 191.184 26.7595 204.38 26.7595C217.575 26.7595 228.272 37.4565 228.272 50.6519Z" fill="#F5F4EC"/>
<path d="M252.403 87.4462C252.403 100.642 237.167 103.693 223.972 103.693C210.776 103.693 200.079 100.642 200.079 87.4462C200.079 74.2508 210.776 55.9082 223.972 55.9082C237.167 55.9082 252.403 74.2508 252.403 87.4462Z" fill="#F5F4EC"/>
<path d="M225.273 76.3867C225.273 71.4611 224.324 70.3665 224.087 68.7247C223.849 67.0828 224.264 59.9204 223.612 54.3128C222.267 42.7356 221.477 79.8528 221.952 84.0487C209.853 82.5893 206.769 77.6637 206.769 77.6637C206.769 77.6637 209.853 86.9675 221.952 86.6027C221.952 89.704 221.714 151 221.714 151H225.273V92.6228V88.7918V78.9407C237.609 76.3867 240.218 68.7247 240.218 68.7247C240.218 68.7247 234.525 76.3867 225.273 76.3867Z" fill="#121212" stroke="#121212" stroke-width="0.477848"/>
</svg>
